<svg xmlns="http://www.w3.org/2000/svg" width="30.153" height="26.266" viewBox="0 0 30.153 26.266">
  <g id="customer" transform="translate(0 -33)">
    <path id="Path_3" data-name="Path 3" d="M174.124,43.247A5.124,5.124,0,1,0,169,38.124,5.129,5.129,0,0,0,174.124,43.247Zm0-8.481a3.357,3.357,0,1,1-3.357,3.357A3.361,3.361,0,0,1,174.124,34.767Z" transform="translate(-159.047)" fill="#d9dfff"/>
    <path id="Path_4" data-name="Path 4" d="M380.239,103.478A3.239,3.239,0,1,0,377,100.239,3.243,3.243,0,0,0,380.239,103.478Zm0-4.711a1.472,1.472,0,1,1-1.472,1.472A1.474,1.474,0,0,1,380.239,98.767Z" transform="translate(-354.797 -60.231)" fill="#d9dfff"/>
    <path id="Path_5" data-name="Path 5" d="M26.154,241H24.788a4,4,0,0,0-3.633,2.318A7.11,7.11,0,0,0,15.9,241H14.253A7.11,7.11,0,0,0,9,243.318,4,4,0,0,0,5.365,241H4a3.991,3.991,0,0,0-4,3.975v6.432a1.731,1.731,0,0,0,1.732,1.726h5.4a2.065,2.065,0,0,0,2.054,1.885H20.965a2.065,2.065,0,0,0,2.054-1.885h5.34a1.792,1.792,0,0,0,1.794-1.787v-6.37A3.991,3.991,0,0,0,26.154,241ZM1.767,244.975A2.223,2.223,0,0,1,4,242.767H5.365A2.223,2.223,0,0,1,7.6,244.975v.6c-.594,1.547-.471,2.474-.471,5.786H1.767Zm19.493,7.979a.3.3,0,0,1-.3.3H9.188a.3.3,0,0,1-.3-.3v-4.827a5.367,5.367,0,0,1,5.36-5.361H15.9a5.367,5.367,0,0,1,5.361,5.36Zm7.126-1.609c0,.03.329.02-5.359.02,0-3.336.122-4.241-.471-5.786v-.6a2.223,2.223,0,0,1,2.232-2.208h1.366a2.223,2.223,0,0,1,2.232,2.208Z" transform="translate(0 -195.75)" fill="#d9dfff"/>
    <path id="Path_6" data-name="Path 6" d="M28.239,103.478A3.239,3.239,0,1,0,25,100.239,3.243,3.243,0,0,0,28.239,103.478Zm0-4.711a1.472,1.472,0,1,1-1.472,1.472A1.474,1.474,0,0,1,28.239,98.767Z" transform="translate(-23.528 -60.231)" fill="#d9dfff"/>
  </g>
</svg>
